Coordinates
version=1
nRows=9
nColumns=36
inDegrees=yes

Units are S.I. units (second, meters, Newtons, ...)
If the header above contains a line with 'inDegrees', this indicates whether rotational values are in degrees (yes) or radians (no).

endheader
time	pelvis_tilt	pelvis_list	pelvis_rotation	pelvis_tx	pelvis_ty	pelvis_tz	hip_flexion_r	hip_adduction_r	hip_rotation_r	knee_angle_r	knee_angle_r_beta	ankle_angle_r	subtalar_angle_r	mtp_angle_r	hip_flexion_l	hip_adduction_l	hip_rotation_l	knee_angle_l	knee_angle_l_beta	ankle_angle_l	subtalar_angle_l	mtp_angle_l	lumbar_extension	lumbar_bending	lumbar_rotation	arm_flex_r	arm_add_r	arm_rot_r	elbow_flex_r	pro_sup_r	arm_flex_l	arm_add_l	arm_rot_l	elbow_flex_l	pro_sup_l
      2.00000000	    -19.02345050	      0.96834280	     -5.92530739	      1.31679162	      1.29727427	      0.15524221	     31.89828286	     -5.35370407	     -4.62480192	      8.31920953	      0.14519760	    -18.96576642	     -0.55063146	     -7.49999987	     34.08153974	     -8.31667561	     -1.75024417	     16.54378891	      0.28874359	    -20.99605691	     -3.26529024	     -7.49999987	     -9.65277097	     -3.21425206	      2.13972623	    -17.74908147	    -34.17881555	      1.22070538	     88.78688666	     73.84967364	    -32.90731324	    -42.10711666	    -18.42697376	     98.59583240	     88.34111572
      2.01666670	    -18.70073358	      0.79132663	     -5.78150131	      1.33575289	      1.26854331	      0.15210089	     32.15143193	     -5.50613556	     -4.94928410	      5.60372163	      0.09780339	    -20.25015728	      0.67382663	     -7.49999987	     34.53407884	     -8.55102983	     -1.21410438	     12.97494559	      0.22645552	    -25.33609171	     -4.29531953	     -7.49999987	    -10.70138637	     -3.14857795	      2.08771491	    -16.46744007	    -32.08884733	      2.74838659	     81.15677477	     73.35009450	    -31.04764025	    -39.54780861	    -16.37216322	     93.25292636	     88.46949778
      2.03333330	    -18.00060948	      0.29161589	     -5.57191245	      1.36785879	      1.23800615	      0.15905314	     31.46498051	     -5.10094833	     -5.15411944	      2.99311535	      0.05223972	    -20.71126417	      0.05108174	     -7.49999987	     34.04527544	     -8.92326630	     -0.06327253	      9.34024651	      0.16301805	    -27.88824060	     -5.21407785	     -7.49999987	    -10.94212442	     -2.73567898	      2.09799299	    -15.60352726	    -29.80340588	      4.36080906	     74.85484994	     72.92997334	    -29.02994801	    -36.56321145	    -14.12879259	     88.68457315	     88.62099691
      2.05000000	    -17.46771578	     -0.54771411	     -5.27523593	      1.37926053	      1.20184162	      0.16365283	     31.72815671	     -4.47951806	     -4.83884911	      1.82289966	      0.03181560	    -21.07472753	     -1.04336566	     -7.49999987	     34.71398515	     -9.72586129	      1.29589962	      7.54507875	      0.13168647	    -29.34173356	     -6.43078898	     -7.49999987	    -11.68206105	     -2.16268608	      2.45782724	    -13.32134571	    -27.56143746	      6.14505324	     69.88383484	     72.53092857	    -26.42004027	    -34.44002958	    -11.57940742	     85.01278520	     88.66743671
      2.06666670	    -16.13332964	     -1.13204706	     -5.08675381	      1.38630745	      1.17374286	      0.16550404	     31.97950386	     -4.14437168	     -4.79314898	      2.14275572	      0.03739814	    -21.46491192	     -2.15005740	     -7.49999987	     35.48097599	    -10.13908960	      2.38749014	      7.42183603	      0.12953548	    -30.21896596	     -7.50928473	     -7.49999987	    -13.75332976	     -1.70067683	      2.62181568	     -9.33652147	    -25.86118533	      7.82809353	     66.34163058	     71.54948671	    -22.43892118	    -32.61005269	     -8.71140713	     83.13346209	     86.98408314
      2.08333330	    -14.94168697	     -1.68913343	     -5.14813134	      1.40543472	      1.12631979	      0.16617871	     32.59705448	     -3.72624550	     -4.38074190	      3.16481177	      0.05523639	    -21.40329782	     -3.32689434	     -7.49999987	     36.20088664	    -10.54327268	      3.28384490	      8.03951971	      0.14031609	    -30.69762228	     -8.25223360	     -7.49999987	    -14.75346454	     -1.02270205	      2.83710561	     -4.72553136	    -25.13115913	     10.77262098	     63.17047325	     71.00156194	    -17.67556996	    -31.17914678	     -4.77451594	     81.54429076	     86.82009711
      2.10000000	    -13.53556892	     -2.19041609	     -4.88371152	      1.42626741	      1.08820761	      0.16583314	     32.65466092	     -3.60684363	     -4.54149932	      5.08055432	      0.08867240	    -20.84912407	     -3.00707272	     -7.49999987	     37.32434537	    -10.89169772	      3.27651923	      9.94602485	      0.17359088	    -29.42090285	     -9.35119652	     -7.49999987	    -16.48466675	     -0.25215311	      2.93137556	     -0.19844226	    -24.01831834	     13.08082654	     61.66018780	     70.36872197	    -12.54567344	    -29.59201647	     -0.80572087	     81.24853650	     86.43443972
      2.11666670	    -12.19011008	     -2.83322738	     -4.83129321	      1.44190627	      1.05349471	      0.17337584	     32.86995687	     -3.18813626	     -4.42700357	      7.61206433	      0.13285559	    -20.62907370	     -4.06057173	     -7.49999987	     37.96954682	    -11.41094471	      3.20180243	     11.99053498	      0.20927431	    -27.39945138	     -9.74241414	     -7.49999987	    -18.64412010	      0.28133983	      3.18036809	      5.66430816	    -22.59214212	     14.84812573	     60.60027921	     69.98030386	     -7.21462449	    -27.46954981	      2.73711884	     79.86800347	     85.82248772
      2.13333330	    -11.49086957	     -2.88467977	     -5.29904263	      1.45807805	      1.01243620	      0.16959525	     34.94002632	     -3.24768832	     -3.83906198	     12.68214661	      0.22134521	    -17.70754633	     -4.87868511	     -7.49999987	     39.92131868	    -11.27492720	      2.91412578	     17.18625926	      0.29995681	    -22.48113193	     -9.71145439	     -7.49999987	    -20.64982967	      0.46768486	      3.53919327	     11.93474337	    -21.58916825	     17.63187986	     61.11872815	     69.75448938	     -0.26762286	    -26.20645362	      7.42262032	     79.36642349	     84.50883743
